<svg width="124" height="38" viewBox="0 0 124 38" fill="none" xmlns="http://www.w3.org/2000/svg">
<path d="M10.8721 3.736C15.2561 3.736 18.6641 4.64799 21.0961 6.47199C23.5281 8.29599 24.7441 11 24.7441 14.584C24.7441 18.328 23.5441 21.16 21.1441 23.08C18.7761 24.968 15.5921 25.912 11.5921 25.912H7.99212V37H0.120117V3.736H10.8721ZM10.9201 20.248C12.7761 20.248 14.1841 19.816 15.1441 18.952C16.1361 18.056 16.6321 16.6 16.6321 14.584C16.6321 11.096 14.6801 9.35199 10.7761 9.35199H7.99212V20.248H10.9201Z" fill="#262525"/>
<path d="M49.5282 23.752C49.5282 24.808 49.4802 25.72 49.3842 26.488H33.5922C33.8482 28.632 34.4562 30.136 35.4162 31C36.3762 31.864 37.7042 32.296 39.4002 32.296C40.4242 32.296 41.4162 32.12 42.3762 31.768C43.3362 31.384 44.3762 30.808 45.4962 30.04L48.6162 34.264C45.6402 36.632 42.3282 37.816 38.6802 37.816C34.5522 37.816 31.3842 36.6 29.1762 34.168C26.9682 31.736 25.8642 28.472 25.8642 24.376C25.8642 21.784 26.3282 19.464 27.2562 17.416C28.1842 15.336 29.5442 13.704 31.3362 12.52C33.1282 11.304 35.2722 10.696 37.7682 10.696C41.4482 10.696 44.3282 11.848 46.4082 14.152C48.4882 16.456 49.5282 19.656 49.5282 23.752ZM42.0882 21.592C42.0242 17.688 40.6482 15.736 37.9602 15.736C36.6482 15.736 35.6242 16.216 34.8882 17.176C34.1842 18.136 33.7522 19.72 33.5922 21.928H42.0882V21.592Z" fill="#262525"/>
<path d="M76.6366 1.38399V37H69.9166L69.5326 34.024C67.7406 36.552 65.3246 37.816 62.2846 37.816C59.1166 37.816 56.7006 36.6 55.0366 34.168C53.4046 31.736 52.5886 28.408 52.5886 24.184C52.5886 21.592 53.0206 19.272 53.8846 17.224C54.7486 15.176 55.9646 13.576 57.5326 12.424C59.1326 11.272 60.9566 10.696 63.0046 10.696C65.4366 10.696 67.4526 11.496 69.0526 13.096V0.567993L76.6366 1.38399ZM64.6366 32.248C66.3966 32.248 67.8686 31.288 69.0526 29.368V18.376C68.4446 17.64 67.8206 17.096 67.1806 16.744C66.5726 16.392 65.8686 16.216 65.0686 16.216C63.6606 16.216 62.5406 16.872 61.7086 18.184C60.8766 19.496 60.4606 21.512 60.4606 24.232C60.4606 27.208 60.8126 29.288 61.5166 30.472C62.2526 31.656 63.2926 32.248 64.6366 32.248Z" fill="#262525"/>
<path d="M96.3939 10.792C97.3219 10.792 98.1699 10.904 98.9379 11.128L97.7379 18.472C96.7779 18.248 96.0099 18.136 95.4339 18.136C93.9299 18.136 92.7779 18.664 91.9779 19.72C91.2099 20.744 90.6019 22.296 90.1539 24.376V37H82.5699V11.512H89.1939L89.8179 16.456C90.3939 14.696 91.2579 13.32 92.4099 12.328C93.5939 11.304 94.9219 10.792 96.3939 10.792Z" fill="#262525"/>
<path d="M111.422 10.696C115.326 10.696 118.382 11.896 120.59 14.296C122.798 16.664 123.902 19.992 123.902 24.28C123.902 27 123.39 29.384 122.366 31.432C121.374 33.448 119.934 35.016 118.046 36.136C116.19 37.256 113.982 37.816 111.422 37.816C107.55 37.816 104.494 36.632 102.254 34.264C100.046 31.864 98.9424 28.52 98.9424 24.232C98.9424 21.512 99.4384 19.144 100.43 17.128C101.454 15.08 102.894 13.496 104.75 12.376C106.638 11.256 108.862 10.696 111.422 10.696ZM111.422 16.264C109.886 16.264 108.734 16.92 107.966 18.232C107.198 19.512 106.814 21.512 106.814 24.232C106.814 27.016 107.182 29.048 107.918 30.328C108.686 31.608 109.854 32.248 111.422 32.248C112.958 32.248 114.11 31.608 114.878 30.328C115.646 29.016 116.03 27 116.03 24.28C116.03 21.496 115.646 19.464 114.878 18.184C114.142 16.904 112.99 16.264 111.422 16.264Z" fill="#262525"/>
</svg>
